<?xml version="1.0" encoding="UTF-8" standalone="no"?>
<!-- Created with Inkscape (http://www.inkscape.org/) -->

<svg
   width="20.652611mm"
   height="11.759254mm"
   viewBox="0 0 20.652611 11.759254"
   version="1.1"
   id="svg5"
   inkscape:version="1.2.1 (9c6d41e410, 2022-07-14)"
   sodipodi:docname="drawing.svg"
   xmlns:inkscape="http://www.inkscape.org/namespaces/inkscape"
   xmlns:sodipodi="http://sodipodi.sourceforge.net/DTD/sodipodi-0.dtd"
   xmlns="http://www.w3.org/2000/svg"
   xmlns:svg="http://www.w3.org/2000/svg">
  <sodipodi:namedview
     id="namedview7"
     pagecolor="#ffffff"
     bordercolor="#000000"
     borderopacity="0.25"
     inkscape:showpageshadow="2"
     inkscape:pageopacity="0.0"
     inkscape:pagecheckerboard="0"
     inkscape:deskcolor="#d1d1d1"
     inkscape:document-units="mm"
     showgrid="false"
     inkscape:zoom="5.6568543"
     inkscape:cx="-7.5130095"
     inkscape:cy="15.556349"
     inkscape:window-width="1920"
     inkscape:window-height="1009"
     inkscape:window-x="-8"
     inkscape:window-y="-8"
     inkscape:window-maximized="1"
     inkscape:current-layer="g587" />
  <defs
     id="defs2">
    <rect
       x="220.94788"
       y="927.42401"
       width="175.90253"
       height="32.492332"
       id="rect236" />
  </defs>
  <g
     inkscape:label="Layer 1"
     inkscape:groupmode="layer"
     id="layer1"
     transform="translate(1.3046287e-7,-285.24075)">
    <g
       aria-label="JB"
       transform="matrix(0.61899214,0,0,0.61899214,-136.95,-292.13784)"
       id="text234"
       style="font-weight:bold;font-size:26.6667px;font-family:'Segoe UI Variable';-inkscape-font-specification:'Segoe UI Variable Bold';white-space:pre;shape-inside:url(#rect236);stroke-width:0.941102">
      <g
         id="g587"
         transform="translate(-15.318879,15.713131)">
        <path
           d="m 248.68674,928.32198 c 0,2.50001 -0.5816,4.41407 -1.74479,5.7422 -1.15451,1.32813 -2.82986,1.99219 -5.02605,1.99219 -0.9809,0 -4.32393,-0.88712 -5.35027,-1.15265 l 0.99204,-3.44929 c 0.72049,0.54687 3.16465,0.96912 4.05875,0.96912 1.91841,0 2.87761,-1.42361 2.87761,-4.27084 v -11.09376 h 4.19271 z"
           style="font-family:'Segoe UI';-inkscape-font-specification:'Segoe UI Bold'"
           id="path400"
           sodipodi:nodetypes="scsccssccs" />
        <path
           d="m 255.90707,935.73086 v -18.6719 h 6.79688 q 3.12501,0 4.8047,1.14583 1.67969,1.14584 1.67969,3.22917 0,1.51042 -1.02865,2.64324 -1.01563,1.13281 -2.60417,1.57552 v 0.0521 q 1.99219,0.2474 3.17709,1.47136 1.19792,1.22396 1.19792,2.98177 0,2.56511 -1.83594,4.07553 -1.83594,1.4974 -5.01303,1.4974 z m 4.20573,-15.57294 v 4.42709 h 1.84897 q 1.30208,0 2.04427,-0.625 0.75521,-0.63802 0.75521,-1.7448 0,-2.05729 -3.07292,-2.05729 z m 0,7.55209 v 4.92188 h 2.27865 q 1.45834,0 2.27865,-0.67708 0.83334,-0.67708 0.83334,-1.84896 0,-1.11979 -0.82032,-1.75782 -0.80729,-0.63802 -2.26562,-0.63802 z"
           style="font-family:'Segoe UI';-inkscape-font-specification:'Segoe UI Bold'"
           id="path402" />
        <rect
           style="fill:#000000;stroke-width:0.529115"
           id="rect553"
           width="21.324888"
           height="3.2842724"
           x="238.7879"
           y="917.05896"
           ry="3.9062343e-08" />
      </g>
    </g>
  </g>
</svg>
